<?xml version="1.0" standalone="no"?>
<!DOCTYPE svg PUBLIC "-//W3C//DTD SVG 20010904//EN"
 "http://www.w3.org/TR/2001/REC-SVG-20010904/DTD/svg10.dtd">
<svg version="1.0" xmlns="http://www.w3.org/2000/svg"
 width="512.000000pt" height="512.000000pt" viewBox="0 0 512.000000 512.000000"
 preserveAspectRatio="xMidYMid meet">
<metadata>
Created by potrace 1.14, written by Peter Selinger 2001-2017
</metadata>
<g transform="translate(0.000000,512.000000) scale(0.100000,-0.100000)"
fill="#000000" stroke="none">
<path d="M0 2560 l0 -2560 2560 0 2560 0 0 2560 0 2560 -2560 0 -2560 0 0
-2560z m4430 900 c15 -15 20 -33 20 -77 0 -79 -15 -93 -98 -93 -87 0 -102 13
-102 92 0 80 19 98 100 98 47 0 64 -4 80 -20z m-3610 -60 c19 -19 20 -33 20
-455 l0 -435 82 0 c62 0 86 -4 100 -17 24 -21 23 -68 -2 -93 -19 -19 -33 -20
-247 -20 -251 0 -263 3 -263 63 0 54 22 67 117 67 l84 0 -2 384 -1 384 -85 4
c-95 3 -113 15 -113 74 0 54 25 64 167 64 110 0 125 -2 143 -20z m2940 0 c29
-29 26 -74 -6 -99 -23 -18 -41 -21 -131 -21 -57 0 -113 -5 -124 -10 -25 -14
-49 -62 -49 -100 l0 -30 74 0 c87 0 126 -22 126 -71 0 -52 -29 -69 -120 -69
l-80 0 0 -290 c0 -277 -1 -291 -20 -310 -24 -24 -67 -26 -92 -3 -17 15 -18 38
-18 310 l0 293 -45 0 c-51 0 -95 32 -95 70 0 38 44 70 95 70 l45 0 0 50 c0
106 64 188 170 221 14 4 76 8 138 8 99 1 114 -1 132 -19z m-1919 -283 c57 -28
115 -83 138 -130 19 -39 21 -61 21 -231 0 -213 -5 -232 -80 -300 -72 -65 -108
-76 -250 -76 -142 0 -178 11 -248 75 -74 67 -82 95 -82 306 l0 185 33 54 c33
56 103 112 161 130 54 16 265 7 307 -13z m2583 2 l26 -20 0 -295 0 -294 85 0
86 0 -3 -62 -3 -63 -229 -3 c-254 -3 -266 0 -266 61 0 54 22 67 117 67 l83 0
0 245 0 245 -78 0 c-94 0 -122 15 -122 64 0 34 15 60 40 69 8 3 65 6 126 6 98
1 114 -1 138 -20z m-1536 -165 c19 -13 22 -24 22 -76 0 -103 16 -98 -328 -98
-347 0 -332 -4 -332 96 0 97 -10 94 330 94 242 0 289 -2 308 -16z m1040 -696
c17 -17 15 -73 -2 -87 -8 -7 -32 -11 -53 -9 -36 3 -38 5 -41 41 -2 21 2 45 9
53 14 17 70 19 87 2z m-360 -314 c2 -240 0 -283 -13 -294 -19 -16 -45 -6 -52
20 -5 19 -6 19 -36 -2 -22 -16 -50 -24 -93 -26 -69 -5 -102 8 -149 58 -29 30
-30 34 -33 145 -4 128 2 146 62 194 35 28 46 31 106 31 55 0 74 -4 104 -25
l36 -24 0 98 c0 54 3 101 7 105 4 4 19 6 33 4 l25 -3 3 -281z m-1340 114 c7
-7 12 -25 12 -42 l0 -30 28 26 c54 50 74 58 140 58 59 0 66 -2 98 -34 27 -27
34 -42 34 -74 0 -73 -57 -83 -71 -12 -8 39 -23 50 -66 50 -25 0 -48 -13 -95
-53 l-63 -53 -5 -119 c-4 -98 -8 -120 -22 -129 -13 -8 -23 -8 -35 0 -16 10
-18 33 -21 204 -2 133 1 197 9 206 14 17 41 18 57 2z m777 -21 l33 -33 7 -144
c8 -170 6 -199 -17 -214 -13 -8 -22 -6 -37 8 -18 16 -21 16 -50 2 -40 -21
-171 -22 -211 -1 -77 40 -82 188 -8 239 17 12 49 16 135 16 l113 0 0 28 c0 51
-12 57 -117 62 -84 4 -98 8 -101 23 -8 43 2 47 114 47 l106 0 33 -33z m923 21
c8 -8 12 -63 12 -179 l0 -168 53 -3 c50 -3 52 -4 52 -33 l0 -30 -134 -3 c-142
-3 -165 3 -159 42 3 18 12 22 58 26 l55 5 0 140 0 140 -49 5 c-56 6 -79 28
-57 54 17 20 150 23 169 4z m600 -8 c59 -36 72 -71 72 -195 0 -128 -13 -161
-79 -195 -59 -30 -176 -28 -221 3 -64 43 -75 68 -78 182 -4 110 5 142 51 186
33 32 55 38 142 38 63 1 87 -3 113 -19z"/>
<path d="M1529 2967 c-24 -18 -46 -44 -50 -57 -11 -41 -10 -275 2 -306 6 -16
26 -42 45 -58 29 -24 47 -30 103 -34 108 -7 150 3 199 47 l42 39 0 158 0 157
-45 44 -45 43 -104 0 c-103 0 -105 -1 -147 -33z"/>
<path d="M3296 1979 c-25 -20 -26 -24 -26 -124 l0 -103 34 -21 c47 -30 86 -27
132 10 56 43 64 57 64 110 0 64 -5 75 -58 115 -54 41 -105 45 -146 13z"/>
<path d="M2760 1820 c-22 -22 -26 -51 -10 -81 9 -16 22 -19 80 -19 88 0 140
26 140 71 0 39 -24 49 -114 49 -63 0 -80 -4 -96 -20z"/>
<path d="M4333 1980 l-33 -20 0 -104 0 -104 36 -22 c47 -30 132 -25 169 10 23
22 25 30 25 116 0 91 -1 93 -31 118 -39 33 -117 36 -166 6z"/>
</g>
</svg>
